# xmcd
#
# Track frame offsets:
#	150
#	19282
#	32600
#	51915
#	69045
#	88287
#	105210
#	123802
#	139107
#	154527
#	170332
#	187200
#
# Disc length: 2738 seconds
#
# Revision: 1
# Processed by: cddbd v1.5.1PL0 Copyright (c) Steve Scherf et al.
# Submitted via: EasyCDDAExtractor 7.1.0.1
#
DISCID=950ab00c
DTITLE=Passi - Odyssee
DYEAR=2004
DGENRE=
TTITLE0=Tu c kl je suis
TTITLE1=Reviens dans ma vie
TTITLE2=Annuler la dette
TTITLE3=Zoom
TTITLE4=5 letters
TTITLE5=Exercice
TTITLE6=Elle attend
TTITLE7=Le cri...
TTITLE8=L'abcd'r
TTITLE9=Soleil
TTITLE10=Combattants
TTITLE11=Quand on arrive
EXTD=
EXTT0=
EXTT1=
EXTT2=
EXTT3=
EXTT4=
EXTT5=
EXTT6=
EXTT7=
EXTT8=
EXTT9=
EXTT10=
EXTT11=
PLAYORDER=
